<?xml version="1.0" encoding="UTF-8" standalone="no"?>
<!DOCTYPE svg PUBLIC "-//W3C//DTD SVG 1.1//EN" "http://www.w3.org/Graphics/SVG/1.1/DTD/svg11.dtd">
<svg width="100%" height="100%" viewBox="0 0 100 100" version="1.1" xmlns="http://www.w3.org/2000/svg" xmlns:xlink="http://www.w3.org/1999/xlink" xml:space="preserve" xmlns:serif="http://www.serif.com/" style="fill-rule:evenodd;clip-rule:evenodd;stroke-linejoin:round;stroke-miterlimit:2;">
    <g transform="matrix(1.00331,0,0,1.00331,0.973818,1.02838)">
        <circle cx="48.864" cy="48.81" r="47.343" style="fill:rgb(236,223,223);"/>
    </g>
    <g transform="matrix(2.67253,0,0,2.67253,-25.5532,-33.6716)">
        <path d="M18.244,29.844L18.46,29.172L19.42,29.172C19.588,29.172 19.696,29.092 19.744,28.932L22.096,21.684C22.144,21.524 22.088,21.444 21.928,21.444L20.728,21.444L20.956,20.772L25.648,20.772C26.384,20.772 26.972,20.956 27.412,21.324C27.852,21.692 28.072,22.136 28.072,22.656C28.072,23.184 27.856,23.69 27.424,24.174C26.992,24.658 26.316,24.984 25.396,25.152C25.988,25.232 26.438,25.432 26.746,25.752C27.054,26.072 27.208,26.472 27.208,26.952C27.208,27.728 26.844,28.404 26.116,28.98C25.388,29.556 24.4,29.844 23.152,29.844L18.244,29.844ZM22.36,24.756L24.16,24.756C24.56,24.756 24.916,24.712 25.228,24.624C25.54,24.536 25.786,24.426 25.966,24.294C26.146,24.162 26.294,24.002 26.41,23.814C26.526,23.626 26.604,23.444 26.644,23.268C26.684,23.092 26.704,22.908 26.704,22.716C26.704,22.34 26.568,22.034 26.296,21.798C26.024,21.562 25.612,21.444 25.06,21.444L23.668,21.444C23.508,21.444 23.404,21.524 23.356,21.684L22.36,24.756ZM21.16,29.172L23.128,29.172C23.992,29.172 24.638,28.982 25.066,28.602C25.494,28.222 25.708,27.688 25.708,27C25.708,26.56 25.558,26.188 25.258,25.884C24.958,25.58 24.528,25.428 23.968,25.428L22.144,25.428L21.004,28.932C20.956,29.092 21.008,29.172 21.16,29.172Z" style="fill-rule:nonzero;stroke:rgb(17,17,17);stroke-width:0.37px;"/>
        <path d="M27.712,29.844L27.928,29.172L28.888,29.172C29.056,29.172 29.164,29.092 29.212,28.932L31.564,21.684C31.612,21.524 31.556,21.444 31.396,21.444L30.316,21.444L30.544,20.772L34.408,20.772C35.608,20.772 36.576,21.104 37.312,21.768C38.048,22.432 38.416,23.276 38.416,24.3C38.416,25.94 37.842,27.274 36.694,28.302C35.546,29.33 34.068,29.844 32.26,29.844L27.712,29.844ZM30.628,29.172L31.636,29.172C32.3,29.172 32.904,29.104 33.448,28.968C33.992,28.832 34.442,28.656 34.798,28.44C35.154,28.224 35.468,27.966 35.74,27.666C36.012,27.366 36.22,27.072 36.364,26.784C36.508,26.496 36.624,26.186 36.712,25.854C36.8,25.522 36.856,25.244 36.88,25.02C36.904,24.796 36.916,24.572 36.916,24.348C36.916,23.46 36.68,22.754 36.208,22.23C35.736,21.706 35.06,21.444 34.18,21.444L33.136,21.444C32.976,21.444 32.872,21.524 32.824,21.684L30.472,28.932C30.424,29.092 30.476,29.172 30.628,29.172Z" style="fill-rule:nonzero;stroke:rgb(17,17,17);stroke-width:0.37px;"/>
        <path d="M18.124,41.844L18.34,41.172L19.3,41.172C19.468,41.172 19.576,41.092 19.624,40.932L21.976,33.684C22.024,33.524 21.968,33.444 21.808,33.444L20.728,33.444L20.956,32.772L25.12,32.772C26.008,32.772 26.718,32.974 27.25,33.378C27.782,33.782 28.048,34.296 28.048,34.92C28.048,35.768 27.664,36.478 26.896,37.05C26.128,37.622 25.14,37.908 23.932,37.908L21.868,37.908L20.884,40.932C20.836,41.092 20.888,41.172 21.04,41.172L22.312,41.172L22.096,41.844L18.124,41.844ZM22.084,37.236L23.788,37.236C24.684,37.236 25.378,37.016 25.87,36.576C26.362,36.136 26.608,35.58 26.608,34.908C26.608,34.444 26.442,34.084 26.11,33.828C25.778,33.572 25.292,33.444 24.652,33.444L23.548,33.444C23.388,33.444 23.284,33.524 23.236,33.684L22.084,37.236Z" style="fill-rule:nonzero;stroke:rgb(17,17,17);stroke-width:0.37px;"/>
        <path d="M35.788,40.836C35.94,41.06 36.156,41.172 36.436,41.172L36.928,41.172L36.784,41.844L34.948,41.844C34.804,41.844 34.692,41.818 34.612,41.766C34.532,41.714 34.452,41.62 34.372,41.484L32.236,37.632L30.928,37.632L29.86,40.932C29.812,41.092 29.864,41.172 30.016,41.172L31.168,41.172L30.952,41.844L27.1,41.844L27.316,41.172L28.276,41.172C28.444,41.172 28.552,41.092 28.6,40.932L30.952,33.684C31,33.524 30.944,33.444 30.784,33.444L29.584,33.444L29.812,32.772L34.636,32.772C35.436,32.772 36.092,32.972 36.604,33.372C37.116,33.772 37.372,34.272 37.372,34.872C37.372,35.624 37.03,36.26 36.346,36.78C35.662,37.3 34.744,37.576 33.592,37.608L35.788,40.836ZM32.212,33.684L31.144,36.96L33.328,36.96C34.176,36.96 34.82,36.766 35.26,36.378C35.7,35.99 35.92,35.512 35.92,34.944C35.92,34.48 35.756,34.114 35.428,33.846C35.1,33.578 34.64,33.444 34.048,33.444L32.524,33.444C32.364,33.444 32.26,33.524 32.212,33.684Z" style="fill-rule:nonzero;stroke:rgb(17,17,17);stroke-width:0.37px;"/>
    </g>
</svg>
